<?xml version="1.0" encoding="UTF-8" standalone="no"?>
<!-- Created with Inkscape (http://www.inkscape.org/) -->

<svg
   width="210mm"
   height="297mm"
   viewBox="0 0 210 297"
   version="1.1"
   id="svg1"
   xml:space="preserve"
   xmlns="http://www.w3.org/2000/svg"
   xmlns:svg="http://www.w3.org/2000/svg"><defs
     id="defs1" /><g
     id="layer1"><path
       style="fill:#000000"
       d="m 63.494524,206.83495 c -0.655796,-0.35949 -1.077791,-0.86335 -1.583578,-1.89076 -0.268052,-0.5445 -0.535269,-1.082 -0.593815,-1.19446 -0.05854,-0.11245 -0.258128,-0.49416 -0.443518,-0.84825 -0.561758,-1.07293 -2.050983,-2.9939 -3.80825,-4.91233 -0.52432,-0.5724 -0.594795,-0.70683 -0.594795,-1.13454 0,-0.44217 0.05766,-0.54109 0.650325,-1.11566 0.657153,-0.63708 1.537809,-1.21042 2.573024,-1.67512 1.027707,-0.46134 1.343526,-0.6227 2.280551,-1.16516 0.510389,-0.29547 1.004653,-0.53722 1.098364,-0.53722 0.09371,0 0.199851,-0.0477 0.235867,-0.10596 0.03602,-0.0583 0.357114,-0.23834 0.71355,-0.40014 0.356436,-0.16181 0.724408,-0.34328 0.817715,-0.40327 0.09331,-0.06 0.288686,-0.1603 0.434175,-0.22292 0.145488,-0.0626 0.617854,-0.34242 1.049701,-0.62178 0.431847,-0.27936 0.834044,-0.50793 0.893771,-0.50793 0.103994,0 0.569422,-0.32232 1.71175,-1.18541 0.28971,-0.21889 0.56964,-0.39943 0.62205,-0.4012 0.0524,-0.002 0.32433,-0.20953 0.60425,-0.46169 0.27992,-0.25216 0.73798,-0.61667 1.0179,-0.81001 0.46567,-0.32165 0.98226,-0.80281 3.68603,-3.43327 1.63533,-1.59099 3.66547,-3.78009 3.66547,-3.95247 0,-0.32177 -0.33039,-0.29064 -1.1906,0.1122 -0.47595,0.22289 -0.95129,0.40525 -1.05632,0.40525 -0.10502,0 -0.29134,0.0674 -0.41404,0.14973 -0.28691,0.19255 -1.64099,0.64197 -1.93422,0.64197 -0.12369,0 -0.32368,0.0747 -0.44443,0.16606 -0.12075,0.0913 -0.41203,0.16767 -0.6473,0.16965 -0.23526,0.002 -0.61698,0.0868 -0.84825,0.18855 -0.55084,0.24229 -4.120779,0.35538 -4.887938,0.15484 -0.279922,-0.0732 -0.808385,-0.20162 -1.174363,-0.28544 -0.365977,-0.0838 -0.719697,-0.20668 -0.786044,-0.27303 -0.06635,-0.0663 -0.201942,-0.12063 -0.301321,-0.12063 -0.222929,0 -1.59379,-0.69427 -1.996805,-1.01129 -0.162784,-0.12804 -0.35756,-0.23281 -0.432838,-0.23281 -0.07528,0 -0.233823,-0.10771 -0.352322,-0.23936 -0.1185,-0.13165 -0.444482,-0.39721 -0.724404,-0.59013 -0.657665,-0.45326 -0.958638,-0.72335 -2.076047,-1.86297 -0.506606,-0.51668 -1.028355,-1.11641 -1.159442,-1.33274 -0.131087,-0.21632 -0.350498,-0.5127 -0.48758,-0.65862 -0.137081,-0.14592 -0.347404,-0.43685 -0.467385,-0.64651 -0.434215,-0.7588 -1.464543,-2.93305 -1.464543,-3.09057 0,-0.0887 -0.04391,-0.18848 -0.09759,-0.22165 -0.05367,-0.0332 -0.162444,-0.29196 -0.241714,-0.57509 -0.07927,-0.28313 -0.188042,-0.54192 -0.241715,-0.57509 -0.05367,-0.0332 -0.0979,-0.22272 -0.09828,-0.42121 -3.83e-4,-0.1985 -0.07877,-0.51062 -0.174192,-0.69361 -0.09542,-0.18299 -0.224392,-0.64104 -0.2866,-1.0179 -0.06221,-0.37685 -0.158239,-0.93967 -0.213401,-1.25069 -0.138164,-0.77901 -0.132466,-3.84587 0.0083,-4.46745 0.06339,-0.27992 0.153487,-0.73798 0.200209,-1.0179 0.04672,-0.27992 0.170772,-0.67183 0.275666,-0.87091 0.104893,-0.19907 0.190715,-0.43106 0.190715,-0.51553 0,-0.30966 0.991658,-2.14984 1.53843,-2.85481 0.192984,-0.24882 0.435518,-0.61679 0.538965,-0.81772 0.186802,-0.36283 0.185541,-0.36823 -0.185092,-0.7917 -1.066124,-1.21811 -2.194481,-3.37729 -2.50757,-4.79837 -0.100648,-0.45683 -0.239395,-1.03418 -0.308327,-1.283 -0.219993,-0.79409 -0.244507,-2.19957 -0.04928,-2.82551 0.09735,-0.31212 0.206947,-0.85934 0.243553,-1.21603 0.0366,-0.3567 0.113887,-0.6778 0.171739,-0.71355 0.05785,-0.0358 0.105184,-0.20913 0.105184,-0.38529 0,-0.17615 0.100672,-0.54213 0.223716,-0.8133 0.123044,-0.27116 0.224834,-0.58097 0.2262,-0.68847 0.0014,-0.10749 0.183681,-0.59099 0.405143,-1.07444 0.221463,-0.48346 0.472694,-1.03169 0.558291,-1.21831 0.0856,-0.18661 0.184884,-0.41564 0.220636,-0.50895 0.03575,-0.0933 0.165478,-0.32233 0.288279,-0.50895 0.122802,-0.18661 0.278456,-0.46641 0.3459,-0.62177 0.06744,-0.15536 0.312961,-0.53707 0.545597,-0.84825 0.232635,-0.31118 0.561546,-0.75537 0.730912,-0.98709 0.423301,-0.57914 2.079802,-2.20555 2.562723,-2.51617 0.217718,-0.14004 0.562594,-0.40161 0.766393,-0.58127 0.368277,-0.32465 0.954775,-0.70659 1.495606,-0.97396 0.155513,-0.0769 0.308198,-0.16627 0.3393,-0.19863 0.128026,-0.13324 1.151754,-0.56781 1.337605,-0.56781 0.110305,0 0.248904,-0.0461 0.307999,-0.10238 0.224076,-0.21351 1.50938,-0.4901 2.652194,-0.57073 1.424788,-0.10053 4.528048,-0.0168 4.710618,0.12712 0.0715,0.0564 0.45325,0.15436 0.84825,0.21772 0.395,0.0633 0.76653,0.16314 0.82562,0.22173 0.0591,0.0586 0.23723,0.10827 0.39585,0.11038 0.15863,0.002 0.49199,0.10218 0.74081,0.22236 0.24882,0.12019 0.55419,0.22187 0.6786,0.22596 0.12441,0.004 0.32499,0.0822 0.44574,0.17349 0.12075,0.0913 0.29203,0.16605 0.38062,0.16605 0.1586,0 1.72678,0.6871 2.05769,0.90158 0.0933,0.0605 0.39867,0.23126 0.6786,0.37953 0.27992,0.14827 0.81432,0.45494 1.18755,0.6815 0.37323,0.22655 0.73598,0.41204 0.80612,0.4122 0.0701,1.6e-4 0.19089,0.0766 0.26833,0.16994 0.18352,0.22114 0.66698,0.21843 0.75241,-0.004 0.0367,-0.0956 -0.0126,-0.26155 -0.10962,-0.36872 -0.15632,-0.17273 -0.45658,-0.72336 -1.3693,-2.51112 -0.59744,-1.17019 -1.08309,-2.2759 -1.08309,-2.4659 0,-0.11179 -0.0477,-0.25161 -0.10588,-0.3107 -0.14016,-0.14223 -0.68472,-1.82321 -0.68983,-2.12941 -0.002,-0.13202 -0.0767,-0.36727 -0.16564,-0.52278 -0.0889,-0.15552 -0.16344,-0.53926 -0.16564,-0.85277 -0.002,-0.3135 -0.0803,-0.86311 -0.17366,-1.22134 -0.19548,-0.75049 -0.22499,-2.54937 -0.0513,-3.12923 0.0651,-0.21731 0.16081,-0.72592 0.21273,-1.13026 0.0924,-0.71993 0.1571,-0.94519 0.60051,-2.09235 0.32323,-0.83625 0.60109,-1.36651 1.25325,-2.39167 0.81423,-1.27995 2.24261,-2.96437 2.91262,-3.43474 0.21335,-0.14977 0.6334,-0.50329 0.93345,-0.7856 0.30004,-0.28231 0.60541,-0.53356 0.6786,-0.55833 0.0732,-0.0248 0.33664,-0.17967 0.58546,-0.3442 0.24882,-0.16454 0.57964,-0.3602 0.73515,-0.43481 0.15551,-0.0746 0.35909,-0.18308 0.4524,-0.24104 0.15467,-0.0961 0.67513,-0.33755 2.180204,-1.01153 0.29713,-0.13306 0.61702,-0.24192 0.71085,-0.24192 0.0938,0 0.28333,-0.0714 0.4211,-0.15878 0.13777,-0.0873 0.46653,-0.19355 0.73058,-0.23604 0.26404,-0.0425 0.5057,-0.11872 0.53702,-0.16939 0.0313,-0.0507 0.35665,-0.12692 0.72297,-0.16944 0.36631,-0.0425 0.80483,-0.14931 0.97448,-0.23732 0.42456,-0.22027 3.21835,-0.22507 3.65293,-0.006 0.16798,0.0846 0.54605,0.18523 0.84017,0.22369 0.29411,0.0385 0.62493,0.11535 0.73514,0.17084 0.51761,0.2606 1.29306,0.58271 1.40285,0.58271 0.0671,0 0.348185,0.15268 0.624695,0.3393 0.27652,0.18661 0.52941,0.3393 0.56199,0.3393 0.0326,0 0.46332,0.27992 0.95719,0.62205 0.9319,0.64556 1.41809,0.77597 1.68663,0.4524 0.0774,-0.0933 0.18844,-0.16965 0.24668,-0.16965 0.0582,0 0.29376,-0.14888 0.52338,-0.33083 0.54974,-0.43563 3.063,-1.70279 3.37969,-1.70401 0.13629,-5.3e-4 0.27554,-0.0459 0.30945,-0.10072 0.0339,-0.0549 0.38838,-0.13474 0.78771,-0.17751 0.39934,-0.0428 0.96798,-0.15056 1.26365,-0.23954 0.64229,-0.1933 2.72089,-0.21726 3.1804,-0.0367 0.17511,0.0688 0.69067,0.16851 1.14569,0.22153 0.84674,0.0987 1.12647,0.16455 2.11329,0.49783 0.31103,0.10504 0.74364,0.22933 0.96135,0.27621 0.21772,0.0469 0.55873,0.17015 0.75781,0.27396 0.19908,0.1038 0.44083,0.18873 0.53723,0.18873 0.0964,0 0.17526,0.0509 0.17526,0.1131 0,0.0622 0.075,0.1131 0.16663,0.1131 0.16764,0 0.86072,0.29062 1.69952,0.71264 1.79879,0.90501 4.85482,3.66225 5.98799,5.40254 0.30099,0.46226 0.66302,1.0186 0.8045,1.23632 0.54392,0.83698 1.10686,2.36156 1.23196,3.33645 0.0399,0.31102 0.12841,0.76908 0.19666,1.0179 0.18438,0.6721 0.15434,2.36894 -0.0595,3.35995 -0.24425,1.13209 -0.24936,1.99588 -0.0123,2.08683 0.0967,0.0371 0.36385,-0.009 0.59377,-0.10181 0.81688,-0.33071 1.51256,-0.52208 3.24555,-0.89278 0.33838,-0.0724 1.42854,-0.10237 2.7144,-0.0747 1.73674,0.0374 2.21832,0.083 2.51085,0.23776 0.19908,0.1053 0.47115,0.19146 0.6046,0.19146 0.13345,0 0.37773,0.0701 0.54284,0.15581 0.16511,0.0857 0.60557,0.27379 0.9788,0.41798 0.69735,0.26942 2.00636,0.99489 2.0735,1.14918 0.0207,0.0476 0.10523,0.0866 0.18777,0.0866 0.0825,0 0.41717,0.2163 0.74362,0.48067 0.32645,0.26437 0.8018,0.6265 1.05633,0.80473 0.89477,0.62654 2.63164,2.57664 3.25792,3.65789 0.13665,0.23593 0.27873,0.4544 0.31573,0.4855 0.26457,0.2224 1.69588,3.01077 1.69588,3.30379 0,0.0875 0.0747,0.25787 0.16605,0.37862 0.0913,0.12075 0.16767,0.30079 0.16965,0.40009 0.002,0.0993 0.0802,0.33403 0.17375,0.52163 0.54877,1.10003 0.79503,4.48642 0.40952,5.63142 -0.0628,0.18661 -0.16269,0.56833 -0.22191,0.84825 -0.18807,0.88897 -0.89916,2.53489 -1.46049,3.3805 -0.33248,0.50088 -0.3214,0.81566 0.0405,1.15206 0.37066,0.3445 1.61989,1.87505 1.78623,2.18848 0.0685,0.12903 0.28052,0.46363 0.4712,0.74356 0.39716,0.58302 0.72746,1.26138 0.72746,1.49405 0,0.0876 0.0747,0.258 0.16605,0.37875 0.0913,0.12075 0.16767,0.33569 0.16965,0.47765 0.002,0.14196 0.0862,0.44733 0.18722,0.6786 0.101,0.23127 0.22661,0.77676 0.27914,1.21219 0.0525,0.43544 0.15677,1.1559 0.23163,1.60102 0.10618,0.63128 0.10609,1.02936 -4.1e-4,1.8096 -0.0751,0.55015 -0.18037,1.43289 -0.23397,1.96163 -0.0536,0.52874 -0.17902,1.21119 -0.27873,1.51655 -0.0997,0.30536 -0.18128,0.69679 -0.18128,0.86985 0,0.17306 -0.0475,0.34399 -0.10549,0.37985 -0.058,0.0359 -0.16324,0.34334 -0.23381,0.6833 -0.0706,0.33996 -0.17579,0.64744 -0.23381,0.6833 -0.058,0.0359 -0.10549,0.19207 -0.10549,0.34714 0,0.2436 -0.10399,0.49478 -0.58011,1.40121 -0.049,0.0933 -0.21522,0.42685 -0.36935,0.7412 -0.15413,0.31436 -0.50059,0.8742 -0.7699,1.2441 -0.26931,0.3699 -0.58712,0.82523 -0.70625,1.01185 -0.34239,0.53639 -3.19743,3.30314 -3.86753,3.74793 -0.92831,0.61617 -2.63304,1.39812 -3.04807,1.39812 -0.15794,0 -0.39026,0.0552 -0.51627,0.12261 -0.12601,0.0674 -0.72068,0.16847 -1.32149,0.22452 -0.60081,0.056 -1.32852,0.16174 -1.61714,0.23487 -0.40402,0.10238 -0.63823,0.10186 -1.0179,-0.002 -0.27122,-0.0744 -1.08264,-0.17798 -1.80315,-0.23028 -0.72051,-0.0523 -1.41697,-0.15234 -1.54769,-0.2223 -0.13072,-0.0699 -0.40643,-0.12831 -0.61268,-0.12968 -0.20626,-0.001 -0.59688,-0.10315 -0.86804,-0.2262 -0.27116,-0.12304 -0.65288,-0.22533 -0.84825,-0.22731 -0.19537,-0.002 -0.45402,-0.0783 -0.57476,-0.16965 -0.12075,-0.0913 -0.3144,-0.16605 -0.43033,-0.16605 -0.11594,0 -0.4243,-0.0928 -0.68526,-0.2062 -0.26096,-0.1134 -0.7035,-0.30108 -0.98342,-0.41707 -0.27992,-0.11598 -0.5893,-0.27767 -0.68751,-0.3593 -0.22834,-0.18982 -0.49486,-0.18944 -0.65285,9.3e-4 -0.0937,0.11292 -0.007,0.3561 0.35372,0.99683 0.4847,0.85992 1.32872,2.54327 1.6369,3.2647 0.093,0.21772 0.23922,0.53994 0.32492,0.71604 0.0857,0.17611 0.15582,0.39105 0.15582,0.47765 0,0.0866 0.0978,0.37513 0.21737,0.64116 0.46263,1.02947 0.57433,1.31513 0.57433,1.4688 0,0.0876 0.0747,0.25801 0.16605,0.37876 0.0913,0.12075 0.16767,0.36203 0.16965,0.53618 0.002,0.17416 0.0878,0.47953 0.19078,0.6786 0.10294,0.19908 0.22671,0.66733 0.27504,1.04056 0.0483,0.37323 0.14795,0.95852 0.22139,1.30065 0.16099,0.74999 0.0827,3.46362 -0.10534,3.65167 -0.0692,0.0692 -0.1276,0.33199 -0.12971,0.58392 -0.002,0.25194 -0.10217,0.66164 -0.22236,0.91046 -0.12019,0.24882 -0.22025,0.51563 -0.22237,0.59292 -0.006,0.20834 -0.96314,2.06108 -1.29763,2.51103 -0.15928,0.21425 -0.2896,0.43268 -0.2896,0.4854 0,0.0527 -0.10685,0.20824 -0.23745,0.3456 -0.1306,0.13736 -0.42998,0.52967 -0.66529,0.8718 -0.50907,0.74015 -2.73838,2.97314 -3.24742,3.25279 -0.19698,0.10822 -0.73067,0.4237 -1.18597,0.70108 -0.96586,0.58841 -3.59363,1.92733 -3.78261,1.92733 -0.0713,0 -0.27538,0.076 -0.45355,0.16895 -0.17818,0.0929 -0.42715,0.16926 -0.55327,0.16965 -0.12612,3.8e-4 -0.3297,0.07 -0.4524,0.15476 -0.1227,0.0847 -0.47756,0.19 -0.78859,0.23391 -0.31102,0.0439 -0.81649,0.15271 -1.12325,0.24178 -0.77715,0.22565 -4.2761,0.22577 -4.95192,1.7e-4 -0.26654,-0.089 -0.68347,-0.19794 -0.9265,-0.24212 -0.24303,-0.0442 -0.57385,-0.14921 -0.73515,-0.23338 -0.1613,-0.0842 -0.35277,-0.15335 -0.42548,-0.15373 -0.11813,-6.2e-4 -0.58383,-0.20934 -1.05534,-0.47298 -0.0933,-0.0522 -0.29689,-0.15763 -0.4524,-0.23435 -0.15551,-0.0767 -0.45526,-0.25449 -0.66611,-0.39503 -0.21085,-0.14054 -0.48512,-0.25553 -0.60951,-0.25553 -0.12438,0 -0.55599,0.29264 -0.95913,0.65032 -0.40314,0.35768 -0.91773,0.81507 -1.14354,1.01643 -0.22581,0.20135 -0.51235,0.39823 -0.63676,0.4375 -0.12441,0.0393 -0.30254,0.1366 -0.39585,0.21629 -0.28913,0.24694 -1.67685,0.95935 -1.86874,0.95935 -0.10006,0 -0.2931,0.0624 -0.42897,0.13858 -0.79582,0.44643 -2.932985,0.71658 -4.460425,0.56383 -1.57344,-0.15736 -2.96035,-0.39804 -3.27206,-0.56784 -0.13587,-0.074 -0.41719,-0.13457 -0.62515,-0.13457 -0.20797,0 -0.47851,-0.0698 -0.60121,-0.15519 -0.1227,-0.0854 -0.40123,-0.19303 -0.61894,-0.23926 -0.21772,-0.0462 -0.44675,-0.12379 -0.50895,-0.17235 -0.0622,-0.0485 -0.29124,-0.14138 -0.50895,-0.20628 -0.69823,-0.20815 -1.18038,-0.40939 -1.46719,-0.61239 -0.15381,-0.10886 -0.32277,-0.19793 -0.37548,-0.19793 -0.0527,0 -0.31775,-0.15268 -0.58898,-0.3393 -0.27124,-0.18661 -0.53488,-0.34048 -0.58588,-0.34192 -0.051,-0.001 -0.277974,-0.16685 -0.504394,-0.36757 -0.22641,-0.20073 -0.72512,-0.59037 -1.10824,-0.86588 -0.70744,-0.50874 -2.37901,-2.19852 -2.63667,-2.66541 -0.0777,-0.14074 -0.39894,-0.63103 -0.71393,-1.08953 -0.315,-0.4585 -0.64125,-1.01176 -0.72501,-1.22948 -0.0838,-0.21772 -0.19502,-0.4442 -0.24726,-0.5033 -0.0522,-0.0591 -0.095,-0.18535 -0.095,-0.28056 0,-0.32543 -0.49373,-1.36504 -0.64828,-1.36504 -0.15526,0 -0.69869,0.54662 -0.70534,0.70949 -0.003,0.0787 -0.61694,1.02893 -1.37899,2.1351 -0.15647,0.22711 -0.51128,0.68517 -0.78848,1.0179 -0.2772,0.33273 -0.65387,0.80854 -0.83705,1.05736 -0.44961,0.61071 -2.68747,2.81592 -3.3892,3.33974 -0.31103,0.23217 -0.71819,0.55946 -0.9048,0.7273 -0.18662,0.16785 -0.54288,0.43631 -0.7917,0.59659 -0.24882,0.16027 -0.66122,0.46162 -0.91645,0.66966 -0.25523,0.20804 -0.50238,0.37825 -0.54923,0.37825 -0.0468,0 -0.27603,0.15116 -0.50929,0.33591 -0.23327,0.18475 -0.54596,0.38821 -0.69488,0.45213 -0.14891,0.0639 -0.37254,0.17901 -0.49695,0.25574 -1.5813,0.97532 -1.684237,1.03424 -2.544751,1.45652 -1.346036,0.66055 -1.841646,0.8184 -2.657849,0.8465 -0.597667,0.0206 -0.885833,-0.0243 -1.17579,-0.18329 z"
       id="path1" /></g></svg>
