{"buffers":[{"uri":"lucky2.bin","byteLength":25974744}],"asset":{"version":"2.0","generator":"gltfpack 0.17"},"extensionsUsed":["KHR_mesh_quantization","KHR_texture_transform","KHR_materials_ior","KHR_materials_specular"],"extensionsRequired":["KHR_mesh_quantization"],"bufferViews":[{"buffer":0,"byteOffset":0,"byteLength":199535},{"buffer":0,"byteOffset":199536,"byteLength":4493777},{"buffer":0,"byteOffset":4693316,"byteLength":10699707},{"buffer":0,"byteOffset":15393024,"byteLength":4781800},{"buffer":0,"byteOffset":20174824,"byteLength":2495597},{"buffer":0,"byteOffset":22670424,"byteLength":1414905},{"buffer":0,"byteOffset":24085332,"byteLength":640192},{"buffer":0,"byteOffset":24725524,"byteLength":309589},{"buffer":0,"byteOffset":25035116,"byteLength":268926},{"buffer":0,"byteOffset":25304044,"byteLength":202144,"byteStride":8,"target":34962},{"buffer":0,"byteOffset":25506188,"byteLength":101072,"byteStride":4,"target":34962},{"buffer":0,"byteOffset":25607260,"byteLength":279726,"target":34963},{"buffer":0,"byteOffset":25886988,"byteLength":87756,"byteStride":4,"target":34962}],"accessors":[{"bufferView":9,"byteOffset":0,"componentType":5123,"count":3321,"type":"VEC3","min":[7916,1623,9747],"max":[8089,1925,9920]},{"bufferView":10,"byteOffset":0,"componentType":5120,"count":3321,"type":"VEC3","normalized":true},{"bufferView":11,"byteOffset":0,"componentType":5123,"count":19872,"type":"SCALAR"},{"bufferView":9,"byteOffset":26568,"componentType":5123,"count":21188,"type":"VEC3","min":[7894,1630,9820],"max":[8040,1951,9923]},{"bufferView":10,"byteOffset":13284,"componentType":5120,"count":21188,"type":"VEC3","normalized":true},{"bufferView":12,"byteOffset":0,"componentType":5123,"count":21188,"type":"VEC2"},{"bufferView":11,"byteOffset":39744,"componentType":5123,"count":115938,"type":"SCALAR"},{"bufferView":9,"byteOffset":196072,"componentType":5123,"count":386,"type":"VEC3","min":[8079,1611,9728],"max":[8191,1773,9838]},{"bufferView":10,"byteOffset":98036,"componentType":5120,"count":386,"type":"VEC3","normalized":true},{"bufferView":12,"byteOffset":84752,"componentType":5123,"count":386,"type":"VEC2"},{"bufferView":11,"byteOffset":271620,"componentType":5123,"count":2169,"type":"SCALAR"},{"bufferView":9,"byteOffset":199160,"componentType":5123,"count":365,"type":"VEC3","min":[7864,1622,9861],"max":[7954,1780,9992]},{"bufferView":10,"byteOffset":99580,"componentType":5120,"count":365,"type":"VEC3","normalized":true},{"bufferView":12,"byteOffset":86296,"componentType":5123,"count":365,"type":"VEC2"},{"bufferView":11,"byteOffset":275958,"componentType":5123,"count":1848,"type":"SCALAR"},{"bufferView":9,"byteOffset":202080,"componentType":5123,"count":8,"type":"VEC3","min":[0,0,0],"max":[16383,16383,16383]},{"bufferView":10,"byteOffset":101040,"componentType":5120,"count":8,"type":"VEC3","normalized":true},{"bufferView":11,"byteOffset":279654,"componentType":5123,"count":36,"type":"SCALAR"}],"samplers":[{"magFilter":9729,"minFilter":9987}],"images":[{"bufferView":0,"mimeType":"image/png"},{"bufferView":1,"mimeType":"image/png"},{"bufferView":2,"mimeType":"image/png"},{"bufferView":3,"mimeType":"image/png"},{"bufferView":4,"mimeType":"image/png"},{"bufferView":5,"mimeType":"image/png"},{"bufferView":6,"mimeType":"image/jpeg"},{"bufferView":7,"mimeType":"image/jpeg"},{"bufferView":8,"mimeType":"image/png"}],"textures":[{"sampler":0,"source":0},{"sampler":0,"source":1},{"sampler":0,"source":2},{"sampler":0,"source":3},{"sampler":0,"source":4},{"sampler":0,"source":5},{"sampler":0,"source":6},{"sampler":0,"source":7},{"sampler":0,"source":8}],"materials":[{"name":"Material.002","pbrMetallicRoughness":{"baseColorFactor":[0.800000012,0.800000012,0.800000012,1],"metallicFactor":0,"roughnessFactor":0.5},"doubleSided":true},{"name":"Material__4145930","pbrMetallicRoughness":{"baseColorTexture":{"index":2,"extensions":{"KHR_texture_transform":{"offset":[-1.01292396,0.00121730566],"scale":[0.00292101596,0.00024072596]}}},"metallicFactor":0,"roughnessFactor":0.766478539},"occlusionTexture":{"index":1,"extensions":{"KHR_texture_transform":{"offset":[-1.01292396,0.00121730566],"scale":[0.00292101596,0.00024072596]}}},"emissiveTexture":{"index":0,"extensions":{"KHR_texture_transform":{"offset":[-1.01292396,0.00121730566],"scale":[0.00292101596,0.00024072596]}}},"emissiveFactor":[0.100000001,0.100000001,0.100000001],"alphaMode":"MASK","alphaCutoff":0.00200000009,"doubleSided":true,"extensions":{"KHR_materials_ior":{"ior":1000},"KHR_materials_specular":{"specularColorFactor":[0.224000677,0.224000677,0.224000677]}}},{"name":"Lemon","pbrMetallicRoughness":{"baseColorTexture":{"index":4,"extensions":{"KHR_texture_transform":{"offset":[0,0],"scale":[0.000204498661,0.000244200259]}}},"metallicFactor":0,"metallicRoughnessTexture":{"index":5,"extensions":{"KHR_texture_transform":{"offset":[0,0],"scale":[0.000204498661,0.000244200259]}}}},"normalTexture":{"index":3,"extensions":{"KHR_texture_transform":{"offset":[0,0],"scale":[0.000204498661,0.000244200259]}}},"doubleSided":true},{"name":"92498_lime_wedge_1_1","pbrMetallicRoughness":{"baseColorTexture":{"index":7,"extensions":{"KHR_texture_transform":{"offset":[0.000150559543,0.000150561333],"scale":[0.000230692109,0.000244126713]}}},"metallicFactor":0,"metallicRoughnessTexture":{"index":8,"extensions":{"KHR_texture_transform":{"offset":[0.000150559543,0.000150561333],"scale":[0.000230692109,0.000244126713]}}}},"normalTexture":{"index":6,"extensions":{"KHR_texture_transform":{"offset":[0.000150559543,0.000150561333],"scale":[0.000230692109,0.000244126713]}}},"doubleSided":true},{"name":"Material.001","pbrMetallicRoughness":{"baseColorFactor":[0.637593508,0.351532996,0.0886556953,1],"metallicFactor":0,"roughnessFactor":0.5},"doubleSided":true}],"meshes":[{"primitives":[{"attributes":{"POSITION":0,"NORMAL":1},"indices":2,"material":0},{"attributes":{"POSITION":3,"NORMAL":4,"TEXCOORD_0":5},"indices":6,"material":1},{"attributes":{"POSITION":7,"NORMAL":8,"TEXCOORD_0":9},"indices":10,"material":2},{"attributes":{"POSITION":11,"NORMAL":12,"TEXCOORD_0":13},"indices":14,"material":3},{"attributes":{"POSITION":15,"NORMAL":16},"indices":17,"material":4}]}],"nodes":[{"mesh":0,"translation":[-187.147156,-37.6454315,-228.730301],"scale":[0.0232141782,0.0232141782,0.0232141782]}],"scenes":[{"name":"Scene","nodes":[0]}],"scene":0}